# Blender v2.92.0 OBJ File: 'wall.blend'
# www.blender.org
mtllib old_house_wallP_2.mtl
o House_Плоскость
v 3.844039 0.205358 -12.495569
v 8.618793 0.205358 -12.495569
v 8.618793 0.205357 -14.016323
v 8.618793 0.205356 -20.475246
v 3.639382 0.205356 -20.477776
v -0.363023 0.205356 -20.477776
v -0.579024 0.205356 -20.477776
v -5.351715 0.205356 -20.477776
v -5.567716 0.205356 -20.477776
v -9.667143 0.205356 -20.477776
v -9.667143 0.205358 -12.494720
v -5.349288 0.205358 -12.494720
v -5.349288 0.205358 -10.089185
v 1.014889 0.205358 -10.089185
v 1.232292 0.205358 -12.495569
v 1.014889 0.205357 -14.246619
v 3.844039 0.205357 -14.486620
v 3.844039 0.205357 -16.381887
v 3.844039 0.205357 -16.575483
v 8.618792 0.205357 -16.381887
v 8.618792 0.205357 -16.575483
v 3.639382 0.205357 -18.703136
v 3.844039 0.205357 -18.703136
v 3.844039 0.205356 -20.477776
v 0.682283 0.205357 -18.703136
v 3.639382 3.205358 -12.495569
v 8.618793 3.205358 -12.495569
v 8.618793 3.205356 -20.475246
v 3.639382 3.205356 -20.477776
v -0.363023 3.205356 -20.477776
v -0.579024 3.205356 -20.477776
v -5.351715 3.205356 -20.477776
v -5.567716 3.205356 -20.477776
v -9.667143 3.205356 -20.477776
v -9.667143 3.205358 -12.494720
v -5.349288 3.205358 -12.494720
v -5.349288 3.205358 -10.089185
v 1.014889 3.205358 -10.089185
v 1.232292 3.205358 -12.495569
v 1.014889 3.205357 -14.246619
v 3.639382 3.205358 -14.047446
v 3.639382 3.205357 -14.246619
v 3.844039 3.205358 -12.495569
v 3.844039 3.205357 -16.381887
v 3.844039 3.205357 -16.575483
v 8.618792 3.205357 -16.381887
v 8.618792 3.205357 -16.575483
v 3.639382 3.205357 -18.703136
v 3.844039 3.205356 -20.477776
v 0.682283 3.205357 -18.703136
v -0.234036 0.205358 -10.089185
v -0.234036 2.785358 -10.089185
v 3.639382 2.905358 -14.047446
v 3.844039 2.905357 -14.486620
v 3.639382 2.905358 -12.495569
v 3.844039 2.905357 -18.703136
v -4.064471 0.205358 -10.089185
v -4.064471 2.785358 -10.089185
v 3.639382 2.905357 -18.703136
v -0.234036 2.905358 -10.089185
v -4.064471 2.905358 -10.089185
v -0.234036 1.225358 -10.089185
v -4.064471 1.225358 -10.089185
v -9.667143 0.205357 -13.398004
v -9.667143 2.785358 -13.398004
v -9.667143 2.905358 -13.398004
v -9.667143 0.205357 -15.542446
v -9.667143 2.785357 -15.542446
v -9.667143 2.905357 -15.542446
v -9.667143 1.225358 -13.398004
v -9.667143 1.225357 -15.542446
v -4.259904 0.205356 -20.477776
v -4.259904 2.785357 -20.477776
v -4.259904 2.905356 -20.477776
v -1.686576 0.205356 -20.477776
v -1.686576 2.785357 -20.477776
v -1.686576 2.905356 -20.477776
v 8.618793 1.225357 -14.016323
v 8.618793 2.905357 -17.347670
v -4.259904 1.225356 -20.477776
v -1.686576 1.225356 -20.477776
v -6.453294 0.205356 -20.477776
v -6.453294 2.785357 -20.477776
v -6.453294 2.905356 -20.477776
v -6.453294 1.225356 -20.477776
v -8.441519 0.205356 -20.477776
v -8.441519 2.785357 -20.477776
v -8.441519 2.905356 -20.477776
v -8.441519 1.225356 -20.477776
v 4.783809 0.205356 -20.477776
v 4.783809 2.785357 -20.477776
v 4.783809 2.905356 -20.477776
v 4.783809 1.225356 -20.477776
v 6.759058 0.205356 -20.477768
v 6.759058 2.785357 -20.477768
v 6.759058 2.905356 -20.477768
v 6.759058 1.225356 -20.477768
v 8.618793 0.205357 -19.061897
v 8.618793 2.785357 -19.061897
v 8.618793 2.905357 -19.061897
v 8.618793 1.225357 -19.061897
v 8.618793 0.205357 -17.407669
v 8.618793 2.785357 -17.407669
v 8.618793 1.225357 -17.407669
v 8.618793 0.205357 -15.538063
v 8.618793 2.785357 -15.538063
v 8.618793 2.905357 -15.538063
v 8.618793 1.225357 -15.538063
v 8.618793 0.205357 -13.896323
v 8.618793 2.785358 -13.896323
v 8.618793 2.905358 -13.896323
v 8.618793 1.225357 -13.896323
v -6.413938 0.205358 -12.494720
v -6.413938 2.905358 -12.494720
v -7.974481 0.205358 -12.494720
v -7.974481 2.905358 -12.494720
v 1.617619 0.205357 -18.703136
v 1.617619 2.905357 -18.703136
v 3.092507 0.205357 -18.703136
v 3.092507 2.905357 -18.703136
v 3.844039 0.205357 -17.201082
v 3.844039 2.905357 -17.201082
v 3.844039 0.205357 -15.999350
v 3.844039 2.905357 -15.999350
v 1.822189 0.205357 -14.246619
v 1.822189 2.905357 -14.246619
v 1.782354 0.205358 -12.495569
v 1.782354 2.905358 -12.495569
v 3.493244 0.205357 -14.023446
v 3.639382 0.205357 -14.023446
v 1.617619 0.205357 -18.643137
v 1.761618 0.205357 -18.643137
v 3.493244 2.785358 -14.023446
v 1.761618 2.785357 -18.679136
v 3.639382 2.905358 -14.023446
v 1.617619 2.905357 -18.679136
v 3.639382 0.205358 -12.519569
v 3.493244 0.205357 -14.270619
v 1.761618 2.785357 -18.916937
v 1.761618 0.205357 -18.916937
v 1.966189 2.785357 -14.270619
v 3.493244 2.785357 -14.270619
v 3.639382 2.905358 -12.519569
v 1.617619 2.905357 -18.916937
v 1.822189 2.905357 -14.270619
v 1.617619 0.205357 -18.916937
v 3.872839 0.205357 -14.486620
v 3.872839 0.205357 -17.201082
v 3.872839 2.905357 -14.486620
v 3.872839 2.905357 -17.201082
v 3.639382 2.905357 -14.270619
v 3.639382 2.905357 -14.246619
v 8.618793 2.785357 -17.347670
vt 0.732691 0.412939
vt 0.846243 0.425292
vt 0.596552 0.425292
vt 0.298276 0.681302
vt 0.466250 0.668948
vt 0.574556 0.681302
vt 0.029828 0.524382
vt 0.000000 0.558430
vt 0.000000 0.389777
vt 0.266016 0.681965
vt 0.000000 0.558431
vt 0.266016 0.558431
vt 0.795612 0.804836
vt 0.795612 0.792483
vt 0.911887 0.792483
vt 0.298276 0.227506
vt 0.399690 0.279851
vt 0.298276 0.279851
vt 1.000000 0.548827
vt 0.846081 0.425292
vt 1.000000 0.425292
vt 0.034992 0.694319
vt 0.034992 0.805500
vt 0.000000 0.694319
vt 0.298276 0.524382
vt 0.196862 0.422874
vt 0.298276 0.422874
vt 0.196862 0.202160
vt 0.298276 0.258989
vt 0.196862 0.258989
vt 0.000000 0.389777
vt 0.000000 0.178223
vt 0.029828 0.258989
vt 0.652979 0.668948
vt 0.780196 0.668948
vt 0.836861 0.681302
vt 0.298276 0.460640
vt 0.399690 0.528834
vt 0.298276 0.528834
vt 0.596551 0.431289
vt 0.596552 0.557767
vt 0.566724 0.460640
vt 0.652979 0.599769
vt 0.780196 0.557767
vt 0.780196 0.599769
vt 0.698305 0.681302
vt 0.705984 0.723304
vt 0.698305 0.723304
vt 0.686985 0.467294
vt 0.792833 0.425292
vt 0.792833 0.467294
vt 0.705984 0.792483
vt 0.795612 0.804836
vt 0.546944 0.804836
vt 0.955684 0.668948
vt 0.990880 0.557767
vt 0.990880 0.681302
vt 0.852648 0.178223
vt 0.596552 0.301757
vt 0.596552 0.178223
vt 0.425674 0.792483
vt 0.522468 0.792483
vt 0.546945 0.804837
vt 0.686985 0.536473
vt 0.796671 0.536473
vt 0.846081 0.548827
vt 0.596551 0.178223
vt 0.596552 0.304756
vt 0.566724 0.227506
vt 0.298276 0.431289
vt 0.596552 0.304756
vt 0.596552 0.431289
vt 0.847777 0.412939
vt 0.944004 0.412939
vt 0.945539 0.425292
vt 0.732691 0.301757
vt 0.846243 0.301757
vt 0.596552 0.301757
vt 0.636581 0.412939
vt 0.636581 0.301757
vt 0.298276 0.557767
vt 0.366398 0.668948
vt 0.366398 0.557767
vt 0.466250 0.557767
vt 0.574556 0.557767
vt 0.298276 0.389777
vt 0.041759 0.422874
vt 0.029828 0.422874
vt 0.298276 0.558430
vt 0.196862 0.524382
vt 0.041759 0.524382
vt 0.000000 0.681965
vt 0.911887 0.681302
vt 0.963542 0.681302
vt 0.963542 0.804836
vt 0.399690 0.227506
vt 0.846081 0.548827
vt 0.000000 0.805500
vt 0.000000 0.681965
vt 0.189212 0.681965
vt 0.129364 0.694319
vt 0.189212 0.805500
vt 0.129364 0.805500
vt 0.298276 0.202160
vt 0.298276 0.178223
vt 0.041759 0.202160
vt 0.029828 0.202160
vt 0.298276 0.389777
vt 0.041759 0.258989
vt 0.836861 0.557767
vt 0.574556 0.681302
vt 0.574556 0.557767
vt 0.652979 0.557767
vt 0.652979 0.664007
vt 0.780196 0.664007
vt 0.399689 0.460640
vt 0.298276 0.557767
vt 0.554793 0.528834
vt 0.566724 0.528834
vt 0.298276 0.431289
vt 0.554793 0.460640
vt 0.600937 0.723304
vt 0.600937 0.681302
vt 0.705984 0.681302
vt 0.686985 0.425292
vt 0.546944 0.681302
vt 0.600937 0.787542
vt 0.600937 0.792483
vt 0.795612 0.681302
vt 0.705984 0.787542
vt 0.955684 0.557767
vt 0.836861 0.681302
vt 0.836861 0.668948
vt 0.852648 0.301757
vt 0.298276 0.681302
vt 0.425674 0.681302
vt 0.522468 0.681302
vt 0.546945 0.681302
vt 0.298276 0.804837
vt 0.796671 0.531532
vt 0.792833 0.531532
vt 0.846081 0.425292
vt 0.596552 0.548827
vt 0.596552 0.425292
vt 0.686985 0.531532
vt 0.298276 0.304756
vt 0.554793 0.279851
vt 0.566724 0.279851
vt 0.298276 0.178223
vt 0.554793 0.227506
vt 0.298276 0.304756
vt 0.846242 0.425292
vt 0.846242 0.412939
vt 0.847777 0.301757
vt 0.944004 0.301757
vt 0.945539 0.412939
vt 0.868464 0.284462
vt 0.852649 0.178223
vt 0.868464 0.178223
vt 0.283535 0.558431
vt 0.268320 0.664670
vt 0.266016 0.558431
vt 0.292887 0.558431
vt 0.294422 0.669612
vt 0.292887 0.669612
vt 0.886891 0.178223
vt 0.888734 0.289404
vt 0.886891 0.289404
vt 0.877678 0.284462
vt 0.886891 0.178223
vt 0.886891 0.289404
vt 0.277946 0.664670
vt 0.280333 0.712827
vt 0.277946 0.712827
vt 0.888734 0.178223
vt 0.890577 0.289404
vt 0.888734 0.289404
vt 0.877677 0.284464
vt 0.868464 0.178223
vt 0.877677 0.178223
vt 0.292886 0.558431
vt 0.283535 0.664670
vt 0.283535 0.558431
vt 0.277947 0.664670
vt 0.266016 0.708954
vt 0.266016 0.668486
vt 0.852649 0.284462
vt 0.283535 0.664670
vt 0.296726 0.558431
vt 0.888734 0.178223
vt 0.877678 0.178223
vt 0.280333 0.664670
vt 0.890577 0.178223
vt 0.868464 0.289405
vt 0.292886 0.669612
vt 0.277947 0.712827
vn 1.0000 0.0000 0.0000
vn 0.0000 0.0000 -1.0000
vn -1.0000 0.0000 0.0000
vn -0.0007 0.0000 1.0000
vn 0.0004 0.0002 1.0000
vn -0.0000 0.0000 1.0000
vn -0.0013 -0.0005 1.0000
vn -0.0000 -0.0003 1.0000
vn -0.0008 -0.0031 1.0000
vn -0.0005 0.0002 1.0000
vn -0.0014 0.0000 1.0000
vn 0.0000 1.0000 0.0000
vn 0.0108 0.0133 0.9999
vn 0.0004 0.0139 0.9999
vn 0.0000 0.0140 0.9999
vn 0.0111 0.0133 0.9998
usemtl wallP
s 1
f 56/1/1 49/2/1 45/3/1
f 36/4/2 116/5/2 35/6/2
f 61/7/2 37/8/2 38/9/2
f 38/10/3 16/11/3 14/12/3
f 42/13/2 152/14/2 126/15/2
f 94/16/4 93/17/5 90/18/6
f 36/19/1 13/20/1 12/21/1
f 120/22/6 119/23/6 59/24/6
f 57/25/2 62/26/2 51/27/2
f 70/28/1 67/29/1 71/30/1
f 34/31/1 35/32/1 69/33/1
f 88/34/6 84/35/6 33/36/6
f 75/37/6 80/38/6 72/39/6
f 31/40/6 32/41/6 77/42/6
f 89/43/6 82/44/6 85/45/6
f 3/46/3 112/47/3 78/48/3
f 101/49/3 102/50/3 104/51/3
f 111/52/3 27/53/3 46/54/3
f 128/55/2 15/56/2 39/57/2
f 30/58/6 5/59/6 29/60/6
f 54/61/1 124/62/1 44/63/1
f 100/64/3 79/65/3 47/66/3
f 28/67/7 49/68/8 96/69/9
f 43/70/2 2/71/2 1/72/2
f 135/73/3 143/74/3 26/75/3
f 56/1/1 23/76/1 24/77/1
f 45/3/1 19/78/1 122/79/1
f 19/78/1 121/80/1 122/79/1
f 56/1/1 24/77/1 49/2/1
f 45/3/1 122/79/1 56/1/1
f 36/4/2 12/81/2 114/82/2
f 12/81/2 113/83/2 114/82/2
f 115/84/2 11/85/2 116/5/2
f 11/85/2 35/6/2 116/5/2
f 36/4/2 114/82/2 116/5/2
f 38/9/2 14/86/2 62/26/2
f 14/86/2 51/27/2 62/26/2
f 62/26/2 52/87/2 38/9/2
f 52/87/2 60/88/2 38/9/2
f 57/25/2 13/89/2 63/90/2
f 13/89/2 37/8/2 63/90/2
f 61/7/2 58/91/2 37/8/2
f 58/91/2 63/90/2 37/8/2
f 38/9/2 60/88/2 61/7/2
f 38/10/3 40/92/3 16/11/3
f 125/93/2 16/94/2 126/15/2
f 16/94/2 40/95/2 126/15/2
f 40/95/2 42/13/2 126/15/2
f 94/16/4 97/96/10 93/17/5
f 36/19/1 37/97/1 13/20/1
f 119/23/6 22/98/6 59/24/6
f 59/24/6 48/99/6 120/22/6
f 48/99/6 50/100/6 118/101/6
f 120/22/6 48/99/6 118/101/6
f 50/100/6 25/102/6 118/101/6
f 25/102/6 117/103/6 118/101/6
f 57/25/2 63/90/2 62/26/2
f 70/28/1 64/104/1 67/29/1
f 35/32/1 11/105/1 70/28/1
f 11/105/1 64/104/1 70/28/1
f 70/28/1 65/106/1 35/32/1
f 65/106/1 66/107/1 35/32/1
f 67/29/1 10/108/1 71/30/1
f 10/108/1 34/31/1 71/30/1
f 69/33/1 68/109/1 34/31/1
f 68/109/1 71/30/1 34/31/1
f 35/32/1 66/107/1 69/33/1
f 82/44/6 9/110/6 85/45/6
f 9/110/6 33/36/6 85/45/6
f 34/111/6 10/112/6 89/43/6
f 10/112/6 86/113/6 89/43/6
f 89/43/6 87/114/6 34/111/6
f 87/114/6 88/34/6 34/111/6
f 84/35/6 83/115/6 33/36/6
f 83/115/6 85/45/6 33/36/6
f 34/111/6 88/34/6 33/36/6
f 75/37/6 81/116/6 80/38/6
f 32/41/6 8/117/6 80/38/6
f 8/117/6 72/39/6 80/38/6
f 80/38/6 73/118/6 32/41/6
f 73/118/6 74/119/6 32/41/6
f 75/37/6 7/120/6 81/116/6
f 7/120/6 31/40/6 81/116/6
f 77/42/6 76/121/6 31/40/6
f 76/121/6 81/116/6 31/40/6
f 32/41/6 74/119/6 77/42/6
f 89/43/6 86/113/6 82/44/6
f 108/122/3 105/123/3 3/46/3
f 3/46/3 109/124/3 112/47/3
f 78/48/3 108/122/3 3/46/3
f 101/49/3 98/125/3 102/50/3
f 105/123/3 108/122/3 20/126/3
f 108/122/3 106/127/3 46/54/3
f 108/122/3 46/54/3 20/126/3
f 106/127/3 107/128/3 46/54/3
f 109/124/3 2/129/3 112/47/3
f 2/129/3 27/53/3 112/47/3
f 111/52/3 110/130/3 27/53/3
f 110/130/3 112/47/3 27/53/3
f 46/54/3 107/128/3 111/52/3
f 128/55/2 127/131/2 15/56/2
f 39/57/2 26/132/2 128/55/2
f 26/132/2 55/133/2 128/55/2
f 30/58/6 6/134/6 5/59/6
f 1/135/1 17/136/1 54/61/1
f 124/62/1 123/137/1 18/138/1
f 43/139/1 1/135/1 54/61/1
f 124/62/1 18/138/1 44/63/1
f 43/139/1 54/61/1 44/63/1
f 153/140/3 103/141/3 104/51/3
f 104/51/3 102/50/3 21/142/3
f 28/143/3 4/144/3 101/49/3
f 4/144/3 98/125/3 101/49/3
f 101/49/3 99/145/3 28/143/3
f 99/145/3 100/64/3 28/143/3
f 104/51/3 21/142/3 47/66/3
f 153/140/3 104/51/3 47/66/3
f 79/65/3 153/140/3 47/66/3
f 28/143/3 100/64/3 47/66/3
f 49/68/8 24/146/6 93/17/5
f 24/146/6 90/18/6 93/17/5
f 93/17/5 91/147/6 49/68/8
f 91/147/6 92/148/6 49/68/8
f 94/16/4 4/149/11 97/96/10
f 4/149/11 28/67/7 97/96/10
f 96/69/9 95/150/11 28/67/7
f 95/150/11 97/96/10 28/67/7
f 49/68/8 92/148/6 96/69/9
f 43/70/2 27/151/2 2/71/2
f 26/75/3 41/152/3 135/73/3
f 41/152/3 53/153/3 135/73/3
f 135/73/3 130/154/3 137/155/3
f 143/74/3 55/156/3 26/75/3
f 135/73/3 137/155/3 143/74/3
usemtl (null)
f 133/157/3 138/158/3 129/159/3
f 140/160/1 134/161/1 132/162/1
f 117/163/3 136/164/3 118/165/3
f 121/166/6 150/167/6 122/168/6
f 139/169/2 146/170/2 144/171/2
f 152/172/12 145/173/12 126/174/12
f 17/175/6 149/176/6 54/177/6
f 134/178/13 131/179/14 132/180/15
f 130/181/6 133/182/6 129/183/6
f 145/184/2 142/185/2 141/186/2
f 133/157/3 142/187/3 138/158/3
f 140/160/1 139/188/1 134/161/1
f 117/163/3 131/189/3 136/164/3
f 121/166/6 148/190/6 150/167/6
f 139/169/2 140/191/2 146/170/2
f 152/172/12 151/192/12 145/173/12
f 17/175/6 147/193/6 149/176/6
f 134/178/13 136/194/16 131/179/14
f 130/181/6 135/195/6 133/182/6
f 145/184/2 151/196/2 142/185/2
