# Blender v2.92.0 OBJ File: ''
# www.blender.org
mtllib old_house_ceiling_2.mtl
o House_Плоскость
v 17.141169 7.285357 -0.370711
v 17.141180 7.285357 -0.408174
v 17.141169 3.222468 5.749690
v 17.141275 3.222466 -6.527267
v -3.345131 7.285357 -0.370716
v -3.345119 7.285357 -0.408181
v -3.345131 3.222468 5.749641
v -3.345022 3.222466 -6.529845
v -3.345131 3.221445 5.751183
v 6.898031 6.717083 -0.408178
v 6.898127 3.222466 -6.528556
v 6.898018 6.717083 -0.370713
vt 1.000208 0.210638
vt 0.499777 0.508719
vt 0.500211 0.209966
vt 0.500020 0.809374
vt 0.000025 0.810931
vt -0.000905 0.512180
vt -0.000222 0.509813
vt 0.499775 0.510548
vt 0.000214 0.209294
vt -0.000220 0.507984
vt 0.999773 0.509453
vt -0.000905 0.512105
vt 0.999085 0.509064
vt 1.000015 0.807817
vn 0.0285 0.8468 -0.5311
vn 0.0183 0.8548 -0.5186
vn 0.0001 0.8684 -0.4958
vn -0.0000 0.8550 0.5187
vn 0.0462 0.8323 0.5525
vn 0.9157 -0.2542 0.3111
vn -0.0554 0.9985 -0.0000
vn -0.0285 0.8467 -0.5312
vn -0.0182 0.8548 -0.5186
vn -0.0462 0.8322 -0.5526
vn 0.0462 0.8323 -0.5524
vn 0.7678 -0.6406 0.0000
vn -0.0285 0.8468 0.5312
vn -0.0462 0.8323 0.5525
usemtl ceiling
s 1
f 8/1/1 10/2/2 11/3/3
f 12/4/4 5/5/5 7/6/6
f 1/7/7 10/2/7 12/8/7
f 4/9/8 10/2/9 2/10/10
f 8/1/1 6/11/11 10/2/2
f 5/5/5 9/12/12 7/6/6
f 7/6/6 3/13/13 12/4/4
f 3/13/13 1/14/14 12/4/4
f 1/7/7 2/10/7 10/2/7
f 4/9/8 11/3/3 10/2/9
